<?xml version="1.0" standalone="no"?>
<!DOCTYPE svg PUBLIC "-//W3C//DTD SVG 20010904//EN"
 "http://www.w3.org/TR/2001/REC-SVG-20010904/DTD/svg10.dtd">
<svg version="1.0" xmlns="http://www.w3.org/2000/svg"
 width="1200.000000pt" height="630.000000pt" viewBox="0 0 1200.000000 630.000000"
 preserveAspectRatio="xMidYMid meet">

<g transform="translate(0.000000,630.000000) scale(0.100000,-0.100000)"
fill="#000000" stroke="none">
<path d="M7035 4384 c-99 -18 -293 -78 -360 -111 -146 -74 -278 -177 -531
-412 -316 -295 -425 -387 -584 -491 -168 -110 -350 -187 -535 -228 -115 -25
-434 -24 -564 1 -183 36 -393 106 -587 197 l-101 47 -12 -51 c-229 -1051 194
-2065 1093 -2621 439 -271 1006 -410 1496 -366 653 59 1213 343 1627 826 321
373 520 823 595 1340 19 132 16 484 -5 610 -40 230 -98 408 -186 567 -213 383
-536 627 -919 693 -105 19 -320 18 -427 -1z m530 -243 c259 -78 460 -248 575
-486 79 -162 108 -321 90 -493 -62 -592 -691 -968 -1249 -745 -278 111 -490
368 -547 662 -19 97 -19 265 0 362 70 366 361 651 736 723 14 2 93 3 175 1
117 -2 165 -7 220 -24z"/>
</g>
</svg>
