<?xml version="1.0" encoding="UTF-8"?>
<svg version="1.1" xmlns="http://www.w3.org/2000/svg" width="540" height="563">
<path d="M0 0 C8.87471144 4.08236726 14.53404671 13.64507105 19.9375 21.4375 C24.54325864 28.07512618 29.31129304 34.23630067 35 40 C35.65355469 40.73476563 36.30710938 41.46953125 36.98046875 42.2265625 C40.63444635 46.02193699 40.63444635 46.02193699 45.6171875 47.0859375 C49.09328616 46.49147425 51.85735303 45.71686063 54.85546875 43.8359375 C56.29589367 41.89689999 56.29589367 41.89689999 55.9375 38.72265625 C54.90292789 34.61454283 53.3605777 31.9404287 51 28.4375 C48.19600742 24.26656104 46.23408528 21.09867007 46 16 C46.66 15.34 47.32 14.68 48 14 C49.093125 14 50.18625 14 51.3125 14 C55.08696508 13.44227241 55.08696508 13.44227241 56.25390625 10.8203125 C56.80884766 9.48613281 56.80884766 9.48613281 57.375 8.125 C59.45912968 3.38649017 59.45912968 3.38649017 61.95703125 1.6015625 C67.80967992 -0.63289881 73.21257465 -0.26742731 79 2 C91.4842235 8.90527033 98.64816839 23.33006128 105.86401367 35.08227539 C112.19358818 45.85178805 112.19358818 45.85178805 122 53 C124.6272914 52.92466753 124.6272914 52.92466753 127 52 C129.56205842 48.15691236 129.67366765 46.5659696 129 42 C126.50899715 38.24875606 123.29454262 35.20552692 120.01171875 32.1484375 C115.17972154 27.60656021 115.17972154 27.60656021 114 23.625 C114 21 114 21 115 20 C117.40410988 19.95256997 119.78483607 19.95445187 122.1875 20 C127.67131927 20.14330588 127.67131927 20.14330588 132.98828125 19.0625 C137.31334645 18.97274508 139.03726775 20.89118761 142.08154297 23.80810547 C145.21835041 27.39200178 147.37631626 31.35219454 149.5625 35.5625 C152.96827171 42.09320766 156.1029837 46.50252279 162 51 C164.31455236 48.7663816 165.82339107 46.69705382 167.375 43.875 C169.65733333 40.17133333 169.65733333 40.17133333 172.5 38.75 C176.24986393 39.12498639 177.41639614 40.22262585 180 43 C180.83218667 44.56241669 181.62005743 46.14883096 182.375 47.75 C191.56226691 67.12005809 213.92806482 74.41279459 232.5 82 C256.9772064 92.01197799 278.28784313 104.47557716 299 121 C300.01707031 121.80308594 301.03414063 122.60617188 302.08203125 123.43359375 C307.96897011 128.15830434 313.55317217 133.16390773 319.078125 138.30078125 C321.78878029 140.80487591 324.5427361 143.24926845 327.3125 145.6875 C330.90279807 148.91190782 334.14362423 152.2486757 337.24609375 155.94140625 C338.45158939 157.35631984 339.69671984 158.73810914 340.97265625 160.08984375 C351.19540544 170.94339779 359.58476022 183.34835931 367.3125 196.0625 C367.76729736 196.8035498 368.22209473 197.54459961 368.69067383 198.30810547 C376.64563887 211.69917748 382.38461785 225.91535899 387.1875 240.6875 C387.57261749 241.85764145 387.57261749 241.85764145 387.96551514 243.05142212 C395.89376909 267.19236126 400.43660589 290.62145554 400.3125 316.0625 C400.31034485 316.86570679 400.3081897 317.66891357 400.30596924 318.49645996 C400.14227281 356.74843589 390.82686469 393.6542567 374 428 C373.64325195 428.7326709 373.28650391 429.4653418 372.91894531 430.22021484 C363.32708502 449.68914628 350.77730152 467.81076525 336.05859375 483.75390625 C334.26621038 485.70954276 332.56960056 487.71044258 330.875 489.75 C313.55369928 509.55722813 291.15327948 524.83126644 268 537 C267.29987793 537.3697998 266.59975586 537.73959961 265.87841797 538.12060547 C245.25220458 548.85033281 222.79722171 555.69969326 200 560 C198.80117188 560.24339111 198.80117188 560.24339111 197.578125 560.49169922 C138.00389256 572.28243272 70.48765575 556.38583993 20.25 523.0625 C13.27373949 518.33307965 6.56666619 513.28020213 0 508 C-1.53527344 506.77410156 -1.53527344 506.77410156 -3.1015625 505.5234375 C-16.28383593 494.79153057 -28.7915237 482.60531084 -39 469 C-39.46792969 468.3920459 -39.93585938 467.7840918 -40.41796875 467.15771484 C-62.68494567 438.13913251 -77.19821636 405.31713286 -84.8125 369.625 C-85.1050769 368.25516968 -85.1050769 368.25516968 -85.40356445 366.85766602 C-88.50763721 351.40028739 -89.37419482 336.16398922 -89.3125 320.4375 C-89.31134186 319.51923431 -89.31018372 318.60096863 -89.30899048 317.65487671 C-89.2731125 303.23678472 -88.58090564 289.21685309 -86 275 C-85.86126465 274.21061035 -85.7225293 273.4212207 -85.57958984 272.60791016 C-83.5133576 261.0267152 -83.5133576 261.0267152 -82 258 C-78.02020247 258.50426284 -74.87833107 259.96275091 -71.32983398 261.78051758 C-52.47942977 271.39956201 -30.91170357 278.59790112 -10 282 C-8.96891113 282.16918945 -8.96891113 282.16918945 -7.91699219 282.34179688 C30.42547516 288.33336135 68.99832173 279.00786622 100.66015625 256.45703125 C101.77564641 255.64103192 102.88896476 254.82205468 104 254 C104.82153564 253.39937744 104.82153564 253.39937744 105.65966797 252.78662109 C119.3426441 242.72596675 131.85696654 231.32933918 144.19921875 219.69189453 C147.49656593 216.59392599 150.82707842 213.53197498 154.15869141 210.47094727 C156.93507911 207.91709445 159.69445128 205.34793445 162.4296875 202.75 C170.2682273 195.32948647 178.36948115 188.48174025 187 182 C187.82628906 181.36578125 188.65257812 180.7315625 189.50390625 180.078125 C215.91255569 160.59560189 250.87412625 152.45295182 283.30004883 156.82006836 C299.21563378 159.26949625 312.83256594 164.46731499 327 172 C328.33078074 172.6717476 329.66263869 173.34145087 331 174 C309.78670542 144.92992965 284.95047054 121.70655818 252.703125 105.36694336 C250.62643507 104.31322816 248.55908114 103.2427032 246.4921875 102.16992188 C221.9536898 88.96509015 221.9536898 88.96509015 195 86 C191.14575253 87.92712374 190.30776874 89.10868408 188.91015625 93.15625 C187.9709017 97.12288723 187.67992115 100.88744082 187.5625 104.9375 C187.26226628 111.44032337 186.90565387 117.41608111 182.64453125 122.671875 C180.29489423 124.56944409 177.96562429 124.41139814 175.03515625 124.49609375 C171.8276252 125.2902809 170.85021759 126.22673399 169 129 C168.55733319 132.55474864 168.71654953 136.05266218 168.875 139.625 C168.94370806 141.53355729 169.00402645 143.44244092 169.0546875 145.3515625 C169.09062012 146.19541504 169.12655273 147.03926758 169.16357422 147.90869141 C169 150 169 150 167 152 C164.43745563 151.98827211 161.92980521 151.89287782 159.375 151.75 C154.13691331 151.57316731 150.53460917 151.51818357 146.3125 155 C145.77238281 155.556875 145.23226563 156.11375 144.67578125 156.6875 C142.36892418 158.49426917 140.85833432 158.31962205 138 158 C135.5625 156.625 135.5625 156.625 134 154 C134.21045072 149.03687048 135.75776848 144.43934371 137.625 139.875 C139.27910476 135.77315435 139.30865203 132.3982914 139 128 C137.95533891 126.78384032 137.95533891 126.78384032 135.75 126.4375 C132.68242324 126.77939272 132.68242324 126.77939272 130.4375 129.875 C126.48848063 136.85696528 125.50275961 145.21557073 124 153 C119.63569937 175.47025052 119.63569937 175.47025052 110.75 182.875 C108 184 108 184 104.125 183.125 C102.06354879 182.63054075 102.06354879 182.63054075 100 183 C97.82615413 185.09023641 96.27653617 187.271472 94.640625 189.80078125 C92.8449527 192.20783721 91.81945263 193.04128302 89 194 C84.18510821 194.55252857 79.58656843 194.56190965 75 192.9375 C72.83797522 190.8430385 71.8485592 188.90368164 70.83203125 186.0859375 C69.83924792 183.59698775 68.51529742 181.38882971 67.1875 179.0625 C65.53571024 175.75892048 64.58074262 173.59545603 65.375 169.9375 C66.71722362 166.1047921 68.75422253 162.62445186 70.87890625 159.17578125 C72.12426468 156.75883127 72.6683617 154.6934408 73 152 C72.19411252 149.94208091 72.19411252 149.94208091 70 149 C64.25117108 149.0942431 60.22730168 149.86663836 56 154 C53.18391249 159.59751549 51.43984742 165.62352014 49.53125 171.57421875 C49.27666016 172.35909668 49.02207031 173.14397461 48.75976562 173.95263672 C48.2670805 175.48293698 47.785874 177.01699907 47.31835938 178.55517578 C44.86247666 186.28774736 41.13109703 193.74876908 34 198 C31.70913837 197.96968614 29.62039194 197.61221212 27.37109375 197.18359375 C24.53939265 196.96433518 22.86057186 197.61460275 20.25 198.6875 C18.01171875 199.54296875 18.01171875 199.54296875 16 200 C12.72580374 198.32806999 11.47724403 196.93552471 9.8203125 193.6875 C8.85126449 190.51271413 9.12499603 188.72905091 9.8125 185.5 C12.45007064 172.12413634 12.45007064 172.12413634 10 159 C8.68 158.67 7.36 158.34 6 158 C1.19026399 162.95389703 -2.85692781 168.0946579 -6.5 173.9375 C-17.5451901 191.58321213 -17.5451901 191.58321213 -25 195 C-29.26536656 195.75675858 -31.41718827 195.92666432 -35.1484375 193.7421875 C-39.04971348 190.6240673 -41.20805955 187.98581214 -42.8125 183.25 C-43.57322241 180.91499249 -43.57322241 180.91499249 -45 179 C-47.84892044 177.76504196 -50.48131947 177.14926776 -53.5390625 176.6328125 C-56 176 -56 176 -58 173 C-58.46322249 169.44862755 -58.36750883 167.61091128 -56.5078125 164.51953125 C-52.70530299 160.699253 -48.21873371 159.49720896 -43.19921875 157.77148438 C-38.04098488 155.85182641 -35.62592956 154.08438912 -33 149 C-31.84188612 146.05270463 -31.84188612 146.05270463 -32 143 C-34.24721141 138.7579186 -34.24721141 138.7579186 -38 136 C-47.01343997 135.10042353 -54.49447951 136.96030471 -62.9375 139.9375 C-65.11257193 140.6778684 -67.28832887 141.41622811 -69.46484375 142.15234375 C-70.88204712 142.6472229 -70.88204712 142.6472229 -72.32788086 143.15209961 C-77.09417809 144.6645117 -81.50426484 145.17996633 -86.5 145.25 C-88.15515625 145.28867187 -88.15515625 145.28867187 -89.84375 145.328125 C-94.26441854 144.86855055 -96.70989624 143.32122468 -99.78125 140.17578125 C-101.31875981 137.43093201 -101.33935428 135.31607541 -101.5 132.1875 C-102.05181857 128.20859771 -102.39470351 126.5391226 -105.4296875 123.8359375 C-108.3272918 122.04175769 -108.3272918 122.04175769 -111.2734375 120.59765625 C-114.92765343 118.4564323 -117.11408419 115.77183162 -119 112 C-120.00096732 101.61853897 -118.71912233 92.83409484 -112.71875 84.14453125 C-109.81811422 81.13427842 -106.78836914 80.63544512 -102.8125 80.4375 C-97.5480925 80.65325441 -93.21063122 82.12289032 -88.41015625 84.22265625 C-85.76846699 85.07467596 -84.56577613 84.94653922 -82 84 C-81.98582031 83.40832031 -81.97164062 82.81664063 -81.95703125 82.20703125 C-81.70470251 78.02655783 -81.32935381 75.50432302 -79 71.9375 C-74.88528322 69.28007874 -71.79241467 69.5271713 -67 70 C-63.23380194 70.81156077 -59.56723883 71.90515614 -55.875 73 C-40.09913044 77.39194271 -40.09913044 77.39194271 -24.375 74.25 C-22.5872345 73.17630908 -22.5872345 73.17630908 -21 72 C-20.05125 71.34 -19.1025 70.68 -18.125 70 C-14.80268572 66.87311597 -14.04839232 65.28239657 -13.875 60.6875 C-16.11101586 53.3583369 -22.97446574 49.96636802 -29.125 45.9375 C-37.87460864 40.16718848 -37.87460864 40.16718848 -41 36 C-41.65469122 32.48186133 -41.63286635 29.26573269 -40 26 C-38.45062862 25.57399582 -36.88435171 25.20863669 -35.3125 24.875 C-29.29157624 23.16207717 -27.14203163 20.20963291 -24 15 C-17.65412545 4.96349841 -12.65123239 -1.33170867 0 0 Z M211 205 C210.0925 205.86625 209.185 206.7325 208.25 207.625 C207.5075 208.40875 206.765 209.1925 206 210 C205.33291016 210.69222656 205.33291016 210.69222656 204.65234375 211.3984375 C188.63555861 228.91012258 181.98710398 252.59874443 182.6484375 275.92578125 C183.29976474 288.17682489 186.60438276 300.0042669 192 311 C192.45246094 311.93199219 192.90492188 312.86398437 193.37109375 313.82421875 C204.01647691 334.50915026 222.85113926 350.12962369 244.9296875 357.359375 C269.60879871 364.55962309 295.37406796 362.29657454 318 350 C322.55009448 347.2875131 326.7932227 344.21904741 331 341 C331.67417969 340.49855469 332.34835937 339.99710938 333.04296875 339.48046875 C350.88406744 325.31373821 361.31816581 302.16666491 364 280 C365.43856907 252.80551166 357.38523503 228.57880584 339.03515625 208.13671875 C323.31289053 191.43663618 300.72992863 180.80346228 277.8046875 179.77734375 C252.38395579 179.06515472 229.41535404 187.02715908 211 205 Z " fill="#15395D" transform="translate(119,0)"/>
<path d="M0 0 C8.87471144 4.08236726 14.53404671 13.64507105 19.9375 21.4375 C24.54325864 28.07512618 29.31129304 34.23630067 35 40 C35.65355469 40.73476563 36.30710938 41.46953125 36.98046875 42.2265625 C40.63444635 46.02193699 40.63444635 46.02193699 45.6171875 47.0859375 C49.09328616 46.49147425 51.85735303 45.71686063 54.85546875 43.8359375 C56.29589367 41.89689999 56.29589367 41.89689999 55.9375 38.72265625 C54.90292789 34.61454283 53.3605777 31.9404287 51 28.4375 C48.19600742 24.26656104 46.23408528 21.09867007 46 16 C46.66 15.34 47.32 14.68 48 14 C49.093125 14 50.18625 14 51.3125 14 C55.08696508 13.44227241 55.08696508 13.44227241 56.25390625 10.8203125 C56.80884766 9.48613281 56.80884766 9.48613281 57.375 8.125 C59.45912968 3.38649017 59.45912968 3.38649017 61.95703125 1.6015625 C67.80967992 -0.63289881 73.21257465 -0.26742731 79 2 C91.4842235 8.90527033 98.64816839 23.33006128 105.86401367 35.08227539 C112.19358818 45.85178805 112.19358818 45.85178805 122 53 C124.6272914 52.92466753 124.6272914 52.92466753 127 52 C129.56205842 48.15691236 129.67366765 46.5659696 129 42 C126.50899715 38.24875606 123.29454262 35.20552692 120.01171875 32.1484375 C115.17972154 27.60656021 115.17972154 27.60656021 114 23.625 C114 21 114 21 115 20 C117.40410988 19.95256997 119.78483607 19.95445187 122.1875 20 C127.67131927 20.14330588 127.67131927 20.14330588 132.98828125 19.0625 C137.31334645 18.97274508 139.03726775 20.89118761 142.08154297 23.80810547 C145.21835041 27.39200178 147.37631626 31.35219454 149.5625 35.5625 C152.96827171 42.09320766 156.1029837 46.50252279 162 51 C164.31455236 48.7663816 165.82339107 46.69705382 167.375 43.875 C169.65733333 40.17133333 169.65733333 40.17133333 172.5 38.75 C176.24986393 39.12498639 177.41639614 40.22262585 180 43 C180.83218667 44.56241669 181.62005743 46.14883096 182.375 47.75 C191.56226691 67.12005809 213.92806482 74.41279459 232.5 82 C256.9772064 92.01197799 278.28784313 104.47557716 299 121 C300.01707031 121.80308594 301.03414063 122.60617188 302.08203125 123.43359375 C307.96897011 128.15830434 313.55317217 133.16390773 319.078125 138.30078125 C321.78878029 140.80487591 324.5427361 143.24926845 327.3125 145.6875 C330.90279807 148.91190782 334.14362423 152.2486757 337.24609375 155.94140625 C338.45158939 157.35631984 339.69671984 158.73810914 340.97265625 160.08984375 C360.21079076 180.51508638 374.96215395 206.03415996 384.5625 232.3125 C384.82659668 233.0243042 385.09069336 233.7361084 385.36279297 234.46948242 C387.48162109 240.54879878 387.48162109 240.54879878 386 244 C385.52691406 243.01902344 385.05382812 242.03804687 384.56640625 241.02734375 C377.69267999 226.92942454 370.41554849 213.82844028 360 202 C359.26910156 201.14792969 358.53820312 200.29585937 357.78515625 199.41796875 C351.55720735 192.2924947 344.9169249 185.55328127 337 180.3125 C332.6807298 177.17670984 329.96426053 172.99239033 326.98120117 168.65527344 C308.13541311 141.38118091 282.11565616 120.27016785 252.703125 105.36694336 C250.62643507 104.31322816 248.55908114 103.2427032 246.4921875 102.16992188 C221.9536898 88.96509015 221.9536898 88.96509015 195 86 C191.14575253 87.92712374 190.30776874 89.10868408 188.91015625 93.15625 C187.9709017 97.12288723 187.67992115 100.88744082 187.5625 104.9375 C187.26226628 111.44032337 186.90565387 117.41608111 182.64453125 122.671875 C180.29489423 124.56944409 177.96562429 124.41139814 175.03515625 124.49609375 C171.8276252 125.2902809 170.85021759 126.22673399 169 129 C168.55733319 132.55474864 168.71654953 136.05266218 168.875 139.625 C168.94370806 141.53355729 169.00402645 143.44244092 169.0546875 145.3515625 C169.09062012 146.19541504 169.12655273 147.03926758 169.16357422 147.90869141 C169 150 169 150 167 152 C164.43745563 151.98827211 161.92980521 151.89287782 159.375 151.75 C154.13691331 151.57316731 150.53460917 151.51818357 146.3125 155 C145.77238281 155.556875 145.23226563 156.11375 144.67578125 156.6875 C142.36892418 158.49426917 140.85833432 158.31962205 138 158 C135.5625 156.625 135.5625 156.625 134 154 C134.21045072 149.03687048 135.75776848 144.43934371 137.625 139.875 C139.27910476 135.77315435 139.30865203 132.3982914 139 128 C137.95533891 126.78384032 137.95533891 126.78384032 135.75 126.4375 C132.68242324 126.77939272 132.68242324 126.77939272 130.4375 129.875 C126.48848063 136.85696528 125.50275961 145.21557073 124 153 C119.63569937 175.47025052 119.63569937 175.47025052 110.75 182.875 C108 184 108 184 104.125 183.125 C102.06354879 182.63054075 102.06354879 182.63054075 100 183 C97.82615413 185.09023641 96.27653617 187.271472 94.640625 189.80078125 C92.8449527 192.20783721 91.81945263 193.04128302 89 194 C84.18510821 194.55252857 79.58656843 194.56190965 75 192.9375 C72.83797522 190.8430385 71.8485592 188.90368164 70.83203125 186.0859375 C69.83924792 183.59698775 68.51529742 181.38882971 67.1875 179.0625 C65.53571024 175.75892048 64.58074262 173.59545603 65.375 169.9375 C66.71722362 166.1047921 68.75422253 162.62445186 70.87890625 159.17578125 C72.12426468 156.75883127 72.6683617 154.6934408 73 152 C72.19411252 149.94208091 72.19411252 149.94208091 70 149 C64.25117108 149.0942431 60.22730168 149.86663836 56 154 C53.18391249 159.59751549 51.43984742 165.62352014 49.53125 171.57421875 C49.27666016 172.35909668 49.02207031 173.14397461 48.75976562 173.95263672 C48.2670805 175.48293698 47.785874 177.01699907 47.31835938 178.55517578 C44.86247666 186.28774736 41.13109703 193.74876908 34 198 C31.70913837 197.96968614 29.62039194 197.61221212 27.37109375 197.18359375 C24.53939265 196.96433518 22.86057186 197.61460275 20.25 198.6875 C18.01171875 199.54296875 18.01171875 199.54296875 16 200 C12.72580374 198.32806999 11.47724403 196.93552471 9.8203125 193.6875 C8.85126449 190.51271413 9.12499603 188.72905091 9.8125 185.5 C12.45007064 172.12413634 12.45007064 172.12413634 10 159 C8.68 158.67 7.36 158.34 6 158 C1.19026399 162.95389703 -2.85692781 168.0946579 -6.5 173.9375 C-17.5451901 191.58321213 -17.5451901 191.58321213 -25 195 C-29.26536656 195.75675858 -31.41718827 195.92666432 -35.1484375 193.7421875 C-39.04971348 190.6240673 -41.20805955 187.98581214 -42.8125 183.25 C-43.57322241 180.91499249 -43.57322241 180.91499249 -45 179 C-47.84892044 177.76504196 -50.48131947 177.14926776 -53.5390625 176.6328125 C-56 176 -56 176 -58 173 C-58.46322249 169.44862755 -58.36750883 167.61091128 -56.5078125 164.51953125 C-52.70530299 160.699253 -48.21873371 159.49720896 -43.19921875 157.77148438 C-38.04098488 155.85182641 -35.62592956 154.08438912 -33 149 C-31.84188612 146.05270463 -31.84188612 146.05270463 -32 143 C-34.24721141 138.7579186 -34.24721141 138.7579186 -38 136 C-47.01343997 135.10042353 -54.49447951 136.96030471 -62.9375 139.9375 C-65.11257193 140.6778684 -67.28832887 141.41622811 -69.46484375 142.15234375 C-70.88204712 142.6472229 -70.88204712 142.6472229 -72.32788086 143.15209961 C-77.09417809 144.6645117 -81.50426484 145.17996633 -86.5 145.25 C-88.15515625 145.28867187 -88.15515625 145.28867187 -89.84375 145.328125 C-94.26441854 144.86855055 -96.70989624 143.32122468 -99.78125 140.17578125 C-101.31875981 137.43093201 -101.33935428 135.31607541 -101.5 132.1875 C-102.05181857 128.20859771 -102.39470351 126.5391226 -105.4296875 123.8359375 C-108.3272918 122.04175769 -108.3272918 122.04175769 -111.2734375 120.59765625 C-114.92765343 118.4564323 -117.11408419 115.77183162 -119 112 C-120.00096732 101.61853897 -118.71912233 92.83409484 -112.71875 84.14453125 C-109.81811422 81.13427842 -106.78836914 80.63544512 -102.8125 80.4375 C-97.5480925 80.65325441 -93.21063122 82.12289032 -88.41015625 84.22265625 C-85.76846699 85.07467596 -84.56577613 84.94653922 -82 84 C-81.98582031 83.40832031 -81.97164062 82.81664063 -81.95703125 82.20703125 C-81.70470251 78.02655783 -81.32935381 75.50432302 -79 71.9375 C-74.88528322 69.28007874 -71.79241467 69.5271713 -67 70 C-63.23380194 70.81156077 -59.56723883 71.90515614 -55.875 73 C-40.09913044 77.39194271 -40.09913044 77.39194271 -24.375 74.25 C-22.5872345 73.17630908 -22.5872345 73.17630908 -21 72 C-20.05125 71.34 -19.1025 70.68 -18.125 70 C-14.80268572 66.87311597 -14.04839232 65.28239657 -13.875 60.6875 C-16.11101586 53.3583369 -22.97446574 49.96636802 -29.125 45.9375 C-37.87460864 40.16718848 -37.87460864 40.16718848 -41 36 C-41.65469122 32.48186133 -41.63286635 29.26573269 -40 26 C-38.45062862 25.57399582 -36.88435171 25.20863669 -35.3125 24.875 C-29.29157624 23.16207717 -27.14203163 20.20963291 -24 15 C-17.65412545 4.96349841 -12.65123239 -1.33170867 0 0 Z " fill="#78A440" transform="translate(119,0)"/>
</svg>
